<svg xmlns="http://www.w3.org/2000/svg" viewBox="0 0 800 450">
  <defs>
    <linearGradient id="sky" x1="0" y1="0" x2="0" y2="1"><stop offset="0" stop-color="#1599ef"/><stop offset=".46" stop-color="#5dc8f5"/><stop offset=".8" stop-color="#d9f8ff"/><stop offset="1" stop-color="#86cf8a"/></linearGradient>
    <radialGradient id="sun" cx="16%" cy="16%" r="38%"><stop offset="0" stop-color="#fffbd0" stop-opacity=".95"/><stop offset="1" stop-color="#fffbd0" stop-opacity="0"/></radialGradient>
    <linearGradient id="castle" x1="0" y1="0" x2="1" y2="1"><stop offset="0" stop-color="#fffef9"/><stop offset="1" stop-color="#cfe8f8"/></linearGradient>
    <linearGradient id="hill" x1="0" y1="0" x2="0" y2="1"><stop offset="0" stop-color="#7bd38d"/><stop offset="1" stop-color="#3d9b68"/></linearGradient>
  </defs>
  <rect width="800" height="450" fill="url(#sky)"/><rect width="800" height="450" fill="url(#sun)"/>
  <g fill="#fff" opacity=".58"><ellipse cx="92" cy="74" rx="92" ry="28"/><ellipse cx="198" cy="58" rx="65" ry="20"/><ellipse cx="615" cy="83" rx="105" ry="30"/><ellipse cx="735" cy="64" rx="72" ry="22"/></g>
  <g transform="translate(470 105)">
    <rect x="0" y="72" width="205" height="105" rx="9" fill="url(#castle)" stroke="#9ac6e7" stroke-width="2"/>
    <rect x="18" y="34" width="35" height="143" rx="4" fill="url(#castle)" stroke="#9ac6e7" stroke-width="2"/>
    <rect x="84" y="0" width="38" height="177" rx="4" fill="url(#castle)" stroke="#9ac6e7" stroke-width="2"/>
    <rect x="150" y="44" width="34" height="133" rx="4" fill="url(#castle)" stroke="#9ac6e7" stroke-width="2"/>
    <path d="M12 34 L59 34 L35 1Z" fill="#ff8cb1"/><path d="M78 0 L128 0 L103 -36Z" fill="#7c8cff"/><path d="M144 44 L190 44 L167 10Z" fill="#ffd067"/>
    <rect x="82" y="112" width="42" height="65" rx="15" fill="#6f87a4"/>
  </g>
  <path d="M0 328 C150 290 270 315 390 333 C535 355 662 336 800 294 L800 450 L0 450Z" fill="url(#hill)"/>
  <path d="M0 374 C160 340 300 360 438 386 C570 410 688 395 800 365 L800 450 L0 450Z" fill="#329563" opacity=".88"/>
  <g fill="#47aa70" opacity=".96"><circle cx="58" cy="344" r="70"/><circle cx="148" cy="354" r="82"/><circle cx="727" cy="338" r="88"/><circle cx="612" cy="360" r="66"/></g>
  <g fill="none" stroke-linecap="round" opacity=".4"><path d="M-40 448 Q400 170 840 448" stroke="#ff5c92" stroke-width="12"/><path d="M-18 450 Q400 193 818 450" stroke="#ffa142" stroke-width="10"/><path d="M6 450 Q400 216 794 450" stroke="#ffe368" stroke-width="9"/><path d="M30 450 Q400 239 770 450" stroke="#58d883" stroke-width="8"/><path d="M54 450 Q400 262 746 450" stroke="#56a9ff" stroke-width="7"/><path d="M78 450 Q400 285 722 450" stroke="#a56cf2" stroke-width="6"/></g>
  <g fill="#fff5ae" opacity=".62"><circle cx="102" cy="150" r="3"/><circle cx="216" cy="206" r="3"/><circle cx="360" cy="155" r="4"/><circle cx="438" cy="229" r="3"/><circle cx="710" cy="180" r="4"/></g>
</svg>