<svg xmlns="http://www.w3.org/2000/svg" width="384" height="512" viewBox="0 0 384 512">
<defs><linearGradient id="robe" x1="0" y1="0" x2="1" y2="1"><stop stop-color="#c6c8ff"/><stop offset="1" stop-color="#514f91"/></linearGradient><radialGradient id="orb"><stop stop-color="#fff"/><stop offset=".35" stop-color="#b9c0ff"/><stop offset="1" stop-color="#5e67d8"/></radialGradient></defs>
<ellipse cx="192" cy="476" rx="100" ry="17" fill="#111228" opacity=".3"/>
<circle cx="193" cy="117" r="50" fill="#e6bea5"/>
<path d="M143 102c16-54 88-56 103-4l-10 34-42-19-33 18z" fill="#242544"/>
<path d="M132 160c36-31 90-29 123 3l22 163-169-1z" fill="url(#robe)" stroke="#3d3b76" stroke-width="11"/>
<path d="m137 184-65 55 32 37 75-62z" fill="#9297e1" stroke="#3d3b76" stroke-width="10"/>
<path d="m249 184 64 54-31 38-76-62z" fill="#9297e1" stroke="#3d3b76" stroke-width="10"/>
<path d="M130 326 103 458h66l28-131zM204 328l18 130h66l-38-133z" fill="#30315a"/>
<circle cx="74" cy="246" r="31" fill="url(#orb)" opacity=".95"/>
<circle cx="311" cy="245" r="31" fill="url(#orb)" opacity=".95"/>
<path d="M50 199c-27 20-37 47-29 77M335 198c27 20 37 47 29 77" fill="none" stroke="#929dff" stroke-width="9" stroke-linecap="round" opacity=".6"/>
<path d="M158 190c25 20 48 20 70 0" fill="none" stroke="#d9dcff" stroke-width="8" stroke-linecap="round"/>
<circle cx="208" cy="120" r="5" fill="#252642"/>
</svg>